<?xml version="1.0" encoding="utf-8"?>
<!-- Generator: Adobe Illustrator 19.0.0, SVG Export Plug-In . SVG Version: 6.00 Build 0)  -->
<svg version="1.1" id="Layer_1" xmlns="http://www.w3.org/2000/svg" xmlns:xlink="http://www.w3.org/1999/xlink" x="0px" y="0px"
	 viewBox="-320 260.3 200 75" style="enable-background:new -320 260.3 200 75;" xml:space="preserve">
<style type="text/css">
	.st0{fill:url(#SVGID_1_);}
	.st1{fill:url(#SVGID_2_);}
	.st2{fill:none;stroke:url(#SVGID_3_);stroke-width:0.4508;}
	.st3{fill:url(#SVGID_4_);}
	.st4{fill:none;stroke:url(#SVGID_5_);stroke-width:0.4508;}
	.st5{fill:#FFFFFF;}
</style>
<linearGradient id="SVGID_1_" gradientUnits="userSpaceOnUse" x1="-490.1323" y1="211.7795" x2="-490.1323" y2="253.0948" gradientTransform="matrix(1.2579 0 0 1.2579 330.0874 5.3326)">
	<stop  offset="0" style="stop-color:#A4C1FF"/>
	<stop  offset="1" style="stop-color:#0E78F9"/>
</linearGradient>
<path class="st0" d="M-293.9,271.7c1,0,1.9,0,2.8,0h9.3c0.9,0,1.9,0,2.8,0c2.6,0,5.2,0,6.9,0.1c6.4,0.4,10.8,4.3,11.4,10.9
	c0.1,2.4,0.1,5.2,0.1,8.6l0,0c0,0.6,0,1.2,0,1.8v9.3c0,0.6,0,1.2,0,1.8c0,3.4,0,6.2-0.1,8.6c-0.6,6.6-5,10.5-11.4,10.9
	c-1.8,0.1-4.4,0.1-6.9,0.1c-1,0-1.9,0-2.8,0h-9.3c-0.9,0-1.9,0-2.8,0c-2.6,0-5.2,0-6.9-0.1c-6.4-0.4-10.8-4.3-11.4-10.9
	c-0.1-2.4-0.1-5.2-0.1-8.6l0,0c0-0.6,0-1.2,0-1.8v-9.3c0-0.6,0-1.2,0-1.8l0,0c0-3.4,0-6.2,0.1-8.6c0.6-6.6,5-10.5,11.4-10.9
	C-299,271.7-296.4,271.7-293.9,271.7z"/>
<g>
	
		<linearGradient id="SVGID_2_" gradientUnits="userSpaceOnUse" x1="-493.9879" y1="224.5786" x2="-493.9879" y2="240.1601" gradientTransform="matrix(1.2579 0 0 1.2579 330.0874 5.3326)">
		<stop  offset="0" style="stop-color:#FFFFFF"/>
		<stop  offset="1" style="stop-color:#C5D4F7"/>
	</linearGradient>
	<path class="st1" d="M-303.9,290.2c0-1.3,1.1-2.4,2.4-2.4h16.8c3.3,0,6,2.7,6,6V305c0,1.3-1.1,2.4-2.4,2.4h-16.8c-3.3,0-6-2.7-6-6
		V290.2z"/>
	
		<linearGradient id="SVGID_3_" gradientUnits="userSpaceOnUse" x1="-493.9482" y1="224.5712" x2="-493.9482" y2="240.1486" gradientTransform="matrix(1.2579 0 0 1.2579 330.0874 5.3326)">
		<stop  offset="0" style="stop-color:#FFFFFF"/>
		<stop  offset="1" style="stop-color:#637ACA"/>
	</linearGradient>
	<path class="st2" d="M-301.5,288.1h16.8c3.2,0,5.8,2.6,5.8,5.8v11.2c0,1.2-0.9,2.1-2.1,2.1h-16.8c-3.2,0-5.8-2.6-5.8-5.8v-11.2
		C-303.6,289-302.6,288.1-301.5,288.1z"/>
</g>
<g>
	
		<linearGradient id="SVGID_4_" gradientUnits="userSpaceOnUse" x1="-479.3604" y1="224.7355" x2="-479.3604" y2="240.0505" gradientTransform="matrix(1.2579 0 0 1.2579 330.0874 5.3326)">
		<stop  offset="0" style="stop-color:#FFFFFF"/>
		<stop  offset="1" style="stop-color:#C5D4F7"/>
	</linearGradient>
	<path class="st3" d="M-277.1,294.7c0-0.8,0.4-1.6,1-2.1l4.8-4.2c1-0.9,2.6-0.2,2.6,1.2v16.1c0,1.3-1.6,2.1-2.6,1.2l-4.4-3.7
		c-0.9-0.7-1.4-1.8-1.4-3V294.7z"/>
	
		<linearGradient id="SVGID_5_" gradientUnits="userSpaceOnUse" x1="-479.4398" y1="224.7219" x2="-479.4398" y2="240.0398" gradientTransform="matrix(1.2579 0 0 1.2579 330.0874 5.3326)">
		<stop  offset="0" style="stop-color:#FFFFFF"/>
		<stop  offset="1" style="stop-color:#637ACA"/>
	</linearGradient>
	<path class="st4" d="M-276,292.8l4.8-4.2c0.8-0.7,2.1-0.1,2.1,1v16.1c0,1.1-1.3,1.7-2.1,1l-4.4-3.7c-0.8-0.7-1.3-1.7-1.3-2.8v-5.4
		C-276.9,294-276.5,293.3-276,292.8z"/>
</g>
<g>
	<path class="st5" d="M-230.6,302.6c0,1.3-0.3,2.5-0.9,3.5c-0.6,1-1.5,1.8-2.6,2.5c-1.1,0.6-2.4,1.1-3.9,1.4s-3.2,0.5-5,0.5
		c-1.6,0-3.1-0.1-4.6-0.2c-1.5-0.2-3-0.4-4.4-0.8v-4.6c0.7,0.2,1.5,0.4,2.2,0.6c0.8,0.2,1.6,0.3,2.3,0.5c0.8,0.1,1.6,0.2,2.3,0.3
		c0.8,0.1,1.5,0.1,2.3,0.1c1.1,0,2-0.1,2.8-0.2c0.8-0.2,1.4-0.4,1.9-0.6c0.5-0.3,0.8-0.6,1-0.9c0.2-0.4,0.3-0.8,0.3-1.2
		c0-0.6-0.2-1.1-0.6-1.5c-0.4-0.4-1-0.8-1.7-1.1c-0.7-0.3-1.5-0.6-2.4-0.8c-0.9-0.3-1.8-0.5-2.7-0.8s-1.8-0.6-2.7-1
		s-1.7-0.8-2.4-1.4c-0.7-0.5-1.3-1.2-1.7-1.9c-0.4-0.7-0.6-1.6-0.6-2.7c0-1,0.2-1.9,0.7-2.7c0.4-0.9,1.1-1.6,2-2.3
		c0.9-0.6,2.1-1.2,3.6-1.5c1.5-0.4,3.2-0.6,5.3-0.6c0.6,0,1.2,0,1.9,0.1s1.3,0.1,2,0.2c0.6,0.1,1.3,0.2,1.9,0.2
		c0.6,0.1,1.1,0.2,1.6,0.3v4.2c-0.5-0.2-1-0.3-1.6-0.4s-1.2-0.2-1.8-0.3s-1.3-0.2-1.9-0.2c-0.6,0-1.2-0.1-1.8-0.1
		c-1,0-1.9,0.1-2.6,0.2c-0.7,0.1-1.3,0.3-1.7,0.5s-0.8,0.5-1,0.9c-0.2,0.3-0.3,0.7-0.3,1.1c0,0.5,0.2,1,0.6,1.3c0.4,0.4,1,0.7,1.7,1
		s1.5,0.6,2.4,0.8c0.9,0.3,1.8,0.5,2.7,0.8s1.8,0.6,2.7,1s1.7,0.8,2.4,1.4s1.3,1.2,1.7,1.9C-230.8,300.7-230.6,301.6-230.6,302.6z"
		/>
	<path class="st5" d="M-212.2,289.3V310h-5.9v-20.7h-8.3v-3.9h22.5v3.9H-212.2z"/>
	<path class="st5" d="M-176.7,297.6c0,2.2-0.3,4.2-1,5.8c-0.6,1.6-1.5,2.9-2.6,4s-2.4,1.8-3.9,2.3s-3.1,0.8-4.8,0.8
		c-4,0-7-1.1-9-3.2c-2-2.2-3-5.3-3-9.4c0-2.2,0.3-4.2,1-5.8s1.5-2.9,2.6-4s2.4-1.8,3.9-2.3s3.1-0.8,4.8-0.8c4,0,7,1.1,9,3.2
		S-176.7,293.5-176.7,297.6z M-182.8,297.8c0-2.9-0.5-5.1-1.4-6.5c-1-1.4-2.5-2.1-4.7-2.1c-1.1,0-2,0.2-2.8,0.6s-1.4,0.9-1.9,1.6
		s-0.9,1.6-1.1,2.6c-0.2,1-0.3,2.2-0.3,3.6c0,2.9,0.5,5.1,1.5,6.5s2.5,2.1,4.7,2.1c1.1,0,2-0.2,2.8-0.6s1.4-0.9,1.9-1.6
		s0.9-1.6,1.1-2.6C-182.9,300.4-182.8,299.2-182.8,297.8z"/>
	<path class="st5" d="M-150.6,297.6c0,2.2-0.3,4.2-1,5.8c-0.6,1.6-1.5,2.9-2.6,4s-2.4,1.8-3.9,2.3s-3.1,0.8-4.8,0.8
		c-4,0-7-1.1-9-3.2c-2-2.2-3-5.3-3-9.4c0-2.2,0.3-4.2,1-5.8s1.5-2.9,2.6-4s2.4-1.8,3.9-2.3s3.1-0.8,4.8-0.8c4,0,7,1.1,9,3.2
		S-150.6,293.5-150.6,297.6z M-156.6,297.8c0-2.9-0.5-5.1-1.4-6.5c-1-1.4-2.5-2.1-4.7-2.1c-1.1,0-2,0.2-2.8,0.6s-1.4,0.9-1.9,1.6
		s-0.9,1.6-1.1,2.6c-0.2,1-0.3,2.2-0.3,3.6c0,2.9,0.5,5.1,1.5,6.5s2.5,2.1,4.7,2.1c1.1,0,2-0.2,2.8-0.6s1.4-0.9,1.9-1.6
		s0.9-1.6,1.1-2.6C-156.7,300.4-156.6,299.2-156.6,297.8z"/>
	<path class="st5" d="M-129.7,310l-0.6-13.9l-0.2-5.5l-1.5,3.8l-3.4,8.4h-3.6l-3-8.4l-1.3-3.8l-0.2,5.4l-0.5,14h-4.9l1.5-24.6h6.5
		l2.7,7l1.3,3.9l1.3-3.7l2.8-7.2h6.6l1.5,24.6L-129.7,310L-129.7,310z"/>
</g>
</svg>
